<?xml version="1.0" encoding="utf-8"?>
<!-- Generator: Adobe Illustrator 24.1.2, SVG Export Plug-In . SVG Version: 6.00 Build 0)  -->
<svg version="1.1" id="Слой_1" xmlns="http://www.w3.org/2000/svg" xmlns:xlink="http://www.w3.org/1999/xlink" x="0px" y="0px"
	 width="412px" height="512px" viewBox="0 0 412 512" enable-background="new 0 0 412 512" xml:space="preserve">
<path fill="#4A76A8" d="M353.8,494.7h-295c-6.6,0-12-5.4-12-12v-453c0-6.6,5.4-12,12-12h295c6.6,0,12,5.4,12,12v453
	C365.8,489.3,360.4,494.7,353.8,494.7z"/>
	<path d="M340.8,479.7h-269c-6.6,0-12-5.4-12-12v-379c0-6.6,5.4-12,12-12h269c6.6,0,12,5.4,12,12v379
	C352.8,474.3,347.4,479.7,340.8,479.7z"/>
<path fill="#4A76A8" d="M333.8,297.7h-254c-6.6,0-12-5.4-12-12v-7c0-6.6,5.4-12,12-12h254c6.6,0,12,5.4,12,12v7
	C345.8,292.3,340.4,297.7,333.8,297.7z"/>
<path fill="#4A76A8" d="M333.8,237.7h-254c-6.6,0-12-5.4-12-12v-7c0-6.6,5.4-12,12-12h254c6.6,0,12,5.4,12,12v7
	C345.8,232.3,340.4,237.7,333.8,237.7z"/>
<path fill="#4A76A8" d="M206.3,360.7c-19.6,0-35.5,15.9-35.5,35.5c0,19.6,15.9,35.5,35.5,35.5c19.6,0,35.5-15.9,35.5-35.5
	C241.8,376.6,225.9,360.7,206.3,360.7z M206.3,424.7c-15.7,0-28.5-12.8-28.5-28.5s12.8-28.5,28.5-28.5s28.5,12.8,28.5,28.5
	S222,424.7,206.3,424.7z"/>
</svg>
